<svg width="253" height="56" viewBox="0 0 253 56" fill="none" xmlns="http://www.w3.org/2000/svg">
<path d="M27.2993 56.0001L-0.000190735 8.56454L55.3172 8.56454L27.2993 56.0001Z" fill="#473A30"/>
<path d="M27.2993 47.4358L-0.000190735 0.000213623L55.3172 0.000213623L27.2993 47.4358Z" fill="#FF842A"/>
<path d="M83.1995 38.432C82.2155 38.432 81.3875 38.264 80.7155 37.928C80.0675 37.592 79.4915 37.028 78.9875 36.236C78.5075 35.42 78.0635 34.304 77.6555 32.888L71.8235 12.8H76.8995L82.4075 32.816C82.5755 33.44 82.8395 33.752 83.1995 33.752C83.5595 33.752 83.8235 33.44 83.9915 32.816L89.4995 12.8H94.5755L88.7435 32.888C88.3355 34.304 87.8795 35.42 87.3755 36.236C86.8955 37.028 86.3195 37.592 85.6475 37.928C84.9995 38.264 84.1835 38.432 83.1995 38.432ZM106.477 38.432C103.141 38.432 100.585 37.664 98.8092 36.128C97.0572 34.568 96.1812 32.276 96.1812 29.252V21.548C96.1812 18.524 97.0572 16.244 98.8092 14.708C100.585 13.148 103.141 12.368 106.477 12.368C109.813 12.368 112.357 13.148 114.109 14.708C115.885 16.244 116.773 18.524 116.773 21.548V29.252C116.773 32.276 115.885 34.568 114.109 36.128C112.357 37.664 109.813 38.432 106.477 38.432ZM106.477 34.472C108.157 34.472 109.441 34.028 110.329 33.14C111.241 32.228 111.697 30.932 111.697 29.252V21.548C111.697 19.868 111.241 18.584 110.329 17.696C109.441 16.784 108.157 16.328 106.477 16.328C104.797 16.328 103.501 16.784 102.589 17.696C101.701 18.584 101.257 19.868 101.257 21.548V29.252C101.257 30.932 101.701 32.228 102.589 33.14C103.501 34.028 104.797 34.472 106.477 34.472ZM131.124 38.432C127.74 38.432 125.16 37.664 123.384 36.128C121.608 34.568 120.72 32.276 120.72 29.252V21.548C120.72 18.524 121.608 16.244 123.384 14.708C125.16 13.148 127.74 12.368 131.124 12.368C133.476 12.368 135.396 12.764 136.884 13.556C138.396 14.324 139.596 15.488 140.484 17.048L136.848 19.568C136.104 18.416 135.324 17.588 134.508 17.084C133.716 16.58 132.588 16.328 131.124 16.328C129.276 16.328 127.92 16.772 127.056 17.66C126.216 18.524 125.796 19.82 125.796 21.548V29.252C125.796 30.98 126.216 32.288 127.056 33.176C127.92 34.04 129.276 34.472 131.124 34.472C132.708 34.472 133.932 34.208 134.796 33.68C135.684 33.128 136.476 32.252 137.172 31.052L140.772 33.716C140.004 34.82 139.212 35.708 138.396 36.38C137.58 37.052 136.584 37.568 135.408 37.928C134.256 38.264 132.828 38.432 131.124 38.432ZM159.014 32.132H149.15L147.458 38H142.382L148.538 17.912C148.97 16.472 149.426 15.356 149.906 14.564C150.386 13.772 150.95 13.208 151.598 12.872C152.27 12.536 153.098 12.368 154.082 12.368C155.066 12.368 155.882 12.536 156.53 12.872C157.178 13.208 157.742 13.772 158.222 14.564C158.726 15.356 159.194 16.472 159.626 17.912L165.782 38H160.706L159.014 32.132ZM157.898 28.352L154.874 17.984C154.706 17.36 154.442 17.048 154.082 17.048C153.722 17.048 153.458 17.36 153.29 17.984L150.266 28.352H157.898ZM169.578 12.8H180.666C183.306 12.8 185.322 13.376 186.714 14.528C188.13 15.68 188.838 17.348 188.838 19.532C188.838 20.732 188.478 21.812 187.758 22.772C187.038 23.732 185.994 24.392 184.626 24.752C186.114 25.04 187.314 25.736 188.226 26.84C189.138 27.92 189.594 29.336 189.594 31.088C189.594 33.224 188.838 34.916 187.326 36.164C185.838 37.388 183.798 38 181.206 38H169.578V12.8ZM180.558 22.952C181.518 22.952 182.286 22.676 182.862 22.124C183.462 21.548 183.762 20.792 183.762 19.856C183.762 18.92 183.462 18.176 182.862 17.624C182.286 17.048 181.518 16.76 180.558 16.76H174.654V22.952H180.558ZM180.126 34.04C181.614 34.04 182.718 33.752 183.438 33.176C184.158 32.576 184.518 31.676 184.518 30.476C184.518 29.276 184.158 28.388 183.438 27.812C182.718 27.212 181.614 26.912 180.126 26.912H174.654V34.04H180.126ZM201.961 38C198.889 38 196.681 37.328 195.337 35.984C194.017 34.64 193.357 32.696 193.357 30.152V12.8H198.433V30.152C198.433 31.472 198.721 32.456 199.297 33.104C199.873 33.728 200.761 34.04 201.961 34.04H210.025V38H201.961ZM221.44 38C218.248 38 215.956 37.328 214.564 35.984C213.172 34.64 212.476 32.696 212.476 30.152V20.648C212.476 18.104 213.172 16.16 214.564 14.816C215.956 13.472 218.248 12.8 221.44 12.8H229.864V16.76H221.44C220.12 16.76 219.136 17.072 218.488 17.696C217.864 18.32 217.552 19.304 217.552 20.648V23.42H228.28V27.38H217.552V30.152C217.552 31.472 217.864 32.456 218.488 33.104C219.136 33.728 220.12 34.04 221.44 34.04H229.936V38H221.44ZM239.521 16.76H231.925V12.8H252.193V16.76H244.597V38H239.521V16.76Z" fill="#473A30"/>
</svg>
